<svg version="1.1" id="Layer_1" xmlns="http://www.w3.org/2000/svg" xmlns:xlink="http://www.w3.org/1999/xlink" x="0px" y="0px"
	 width="100%" viewBox="0 0 1144 309" enable-background="new 0 0 1144 309" xml:space="preserve">

<path fill="#E51B22" opacity="1.000000" stroke="none" 
	d="
M275.468658,310.000000 
	C269.334564,309.001862 263.652679,308.088409 258.006531,306.990967 
	C232.975220,302.125671 209.940369,292.525085 189.651993,277.000488 
	C181.319427,270.624481 173.086029,263.869232 165.959915,256.213806 
	C145.981705,234.751572 132.512207,209.698853 126.981094,180.664520 
	C126.713364,179.259109 126.291214,177.883102 125.821121,176.017853 
	C131.162811,176.017853 136.133011,176.017853 141.630554,176.457581 
	C149.127045,208.793610 164.689651,235.513290 189.388458,257.081482 
	C218.317520,282.343689 252.433289,293.958130 290.131104,295.776520 
	C300.105865,296.257629 310.327576,294.652740 320.238953,292.895172 
	C365.385986,284.889191 400.638855,261.645447 425.346741,222.919724 
	C434.460571,208.635269 440.639465,193.064209 443.195557,176.192459 
	C448.516113,176.192459 453.836670,176.192459 459.149414,176.192459 
	C449.406097,244.670990 386.894379,302.823792 311.174316,309.614136 
	C299.312439,310.000000 287.624878,310.000000 275.468658,310.000000 
z"/>
<path fill="#65358C" opacity="1.000000" stroke="none" 
	d="
M20.041731,73.995071 
	C11.120588,67.398354 7.427263,58.383343 6.902574,47.465309 
	C6.388607,36.770363 8.488749,27.146315 14.982789,18.425354 
	C22.231939,8.690339 32.188019,3.965510 43.844288,1.359846 
	C51.354252,1.000000 58.708508,1.000000 66.531380,1.000001 
	C72.471512,2.664459 78.165596,3.828065 83.352440,6.133090 
	C88.625053,8.476231 93.415359,11.916093 98.347733,14.986733 
	C98.662064,15.182421 98.379883,16.336275 97.724953,17.168705 
	C85.328712,11.745704 73.019859,9.295555 59.994900,9.941805 
	C49.476997,10.463665 39.738441,13.028707 31.471655,19.708702 
	C18.784084,29.960913 12.879703,43.058685 16.027779,59.457306 
	C16.972549,64.378716 18.682386,69.153252 20.041731,73.995071 
z"/>
<path fill="#66358B" opacity="1.000000" stroke="none" 
	d="
M1.000000,125.333328 
	C4.003939,120.648155 7.035447,116.315018 10.004910,111.939774 
	C13.806754,106.338097 19.630522,105.212738 25.346670,108.846878 
	C33.190632,113.833817 41.034317,118.441971 51.004414,118.107063 
	C64.112732,117.666740 69.031090,113.070831 69.316269,99.482826 
	C79.281380,105.046898 81.201576,117.023537 73.060440,123.274872 
	C68.041595,127.128685 61.693092,129.582779 55.409367,127.489624 
	C47.996136,125.020233 40.884155,121.493004 33.909645,117.903511 
	C27.041899,114.368950 22.906948,115.060738 18.643232,121.387825 
	C15.870863,125.501846 13.028222,129.568512 10.217066,133.656387 
	C7.364586,131.499008 4.512105,129.341644 1.329813,127.092133 
	C1.000000,126.555557 1.000000,126.111107 1.000000,125.333328 
z"/>
<path fill="#64358C" opacity="1.000000" stroke="none" 
	d="
M1145.000000,213.583344 
	C1137.882202,214.000000 1130.764404,214.000000 1123.324707,214.000000 
	C1123.324707,201.710999 1123.324707,189.685318 1123.324707,177.330444 
	C1124.983521,177.330444 1126.703369,177.330444 1128.876465,177.330444 
	C1128.876465,187.649963 1128.876465,198.031189 1128.876465,209.000000 
	C1134.226074,209.000000 1139.145508,209.000000 1144.532471,209.000000 
	C1145.000000,210.388885 1145.000000,211.777786 1145.000000,213.583344 
z"/>
<path fill="#F39224" opacity="1.000000" stroke="none" 
	d="
M247.835281,80.002907 
	C240.545822,94.055168 233.331894,108.147423 225.922745,122.136284 
	C223.579407,126.560654 221.553986,131.698822 217.917755,134.782410 
	C209.686310,141.762787 197.790375,138.957809 192.042282,129.032349 
	C191.596390,128.261505 191.278976,128.117310 190.961548,127.973099 
	C190.961548,127.973099 191.019623,127.977585 191.172607,127.643402 
	C191.122635,126.678520 191.003571,126.004677 190.704575,125.423370 
	C180.030533,104.671524 169.345139,83.925507 158.629288,63.195232 
	C158.237396,62.437103 157.524002,61.845158 156.460358,60.581795 
	C156.221985,62.195114 155.928680,62.985706 156.029877,63.722073 
	C156.319565,65.829918 156.769287,67.915764 157.156097,70.010262 
	C157.156097,97.103455 157.156097,124.196648 157.156097,151.644516 
	C147.379486,151.644516 138.003922,151.644516 127.970993,151.644516 
	C127.970993,149.415741 127.970993,147.156830 127.968765,143.985291 
	C127.966530,99.180481 127.966530,55.288326 127.966530,10.836804 
	C138.089905,10.836804 147.545578,10.836804 157.001266,10.836804 
	C160.883850,11.025248 163.231796,13.193835 164.899796,16.565790 
	C172.880325,32.698975 180.911942,48.807152 188.993652,64.889915 
	C192.658783,72.183617 196.482315,79.397736 200.592133,87.213593 
	C202.731491,92.410805 204.512711,97.042366 206.692993,102.711578 
	C209.243927,97.157684 211.157150,92.625916 213.368134,88.244408 
	C221.207703,72.708733 229.122467,57.210796 237.061920,41.725826 
	C241.576309,32.921078 246.047546,24.086960 250.893967,15.466053 
	C251.818039,13.822270 254.326172,12.313095 256.243469,12.118084 
	C263.465393,11.383527 270.745087,11.217341 278.003174,10.838310 
	C280.803406,10.838310 283.603638,10.838310 286.697754,10.838310 
	C286.697754,57.973270 286.697754,104.627777 286.697754,151.641556 
	C277.054199,151.641556 267.347321,151.641556 256.978699,151.641556 
	C256.978699,149.428970 256.978699,147.172592 257.027100,144.225494 
	C257.125854,143.368683 257.176208,143.202576 257.473389,142.704285 
	C257.812439,141.719391 257.985016,141.066681 257.985413,140.413895 
	C258.000092,115.850784 258.011444,91.287643 257.963501,66.724625 
	C257.961090,65.476936 257.429749,64.230278 256.957275,62.734180 
	C253.791733,68.324448 250.813507,74.163681 247.835281,80.002907 
z"/>
<path fill="#0090D7" opacity="1.000000" stroke="none" 
	d="
M557.054688,125.869820 
	C559.851013,125.869820 562.647339,125.869820 565.719910,125.869820 
	C565.719910,134.692886 565.719910,143.077332 565.719910,151.732086 
	C535.282288,151.732086 504.944946,151.732086 473.979889,151.732086 
	C473.979889,149.448700 473.979889,147.193024 474.012268,144.238388 
	C474.090363,143.367004 474.136108,143.194580 474.437073,142.697495 
	C474.794800,140.555847 474.985596,138.738937 474.987091,136.921844 
	C475.021088,94.990433 475.034515,53.059006 475.514954,11.080191 
	C502.988556,10.970292 529.999023,10.907782 557.009460,10.845272 
	C559.807068,10.845272 562.604675,10.845272 565.699768,10.845272 
	C565.699768,19.640795 565.699768,28.017748 565.699768,36.822308 
	C546.684509,36.822308 527.676025,36.822308 508.001190,36.822308 
	C508.001190,44.461018 508.001190,51.694279 507.678528,59.658714 
	C507.234558,63.123348 507.113251,65.856804 506.980652,68.845268 
	C519.807068,68.845268 531.908264,68.845268 544.009460,68.845268 
	C546.475891,68.845268 548.942322,68.845268 551.703247,68.845268 
	C551.703247,77.294563 551.703247,85.339699 551.703247,93.823090 
	C537.355408,93.823090 523.005127,93.823090 508.001190,93.823090 
	C508.001190,101.802589 508.001190,109.365059 507.686890,117.643616 
	C507.576569,120.962616 507.780487,123.565529 508.305634,126.427795 
	C523.833984,126.779312 539.041199,126.880173 554.248474,126.930946 
	C554.840942,126.932922 555.435059,126.454727 556.289368,126.131409 
	C556.718445,125.998306 556.886536,125.934067 557.054688,125.869820 
z"/>
<path fill="#E51A22" opacity="1.000000" stroke="none" 
	d="
M10.131843,133.961060 
	C13.028222,129.568512 15.870863,125.501846 18.643232,121.387825 
	C22.906948,115.060738 27.041899,114.368950 33.909645,117.903511 
	C40.884155,121.493004 47.996136,125.020233 55.409367,127.489624 
	C61.693092,129.582779 68.041595,127.128685 73.060440,123.274872 
	C81.201576,117.023537 79.281380,105.046898 69.287231,99.039627 
	C59.660179,95.892326 50.429798,92.611221 41.107094,89.617622 
	C33.037434,87.026390 26.798611,81.993698 21.182261,75.136757 
	C20.671740,74.335022 20.328409,74.150398 19.985079,73.965767 
	C19.985079,73.965767 20.018785,73.971130 20.030258,73.983101 
	C18.682386,69.153252 16.972549,64.378716 16.027779,59.457306 
	C12.879703,43.058685 18.784084,29.960913 31.471655,19.708702 
	C39.738441,13.028707 49.476997,10.463665 59.994900,9.941805 
	C73.019859,9.295555 85.328712,11.745704 97.433289,17.410116 
	C100.421722,19.096769 103.292793,20.389313 105.565819,22.368639 
	C106.509987,23.190809 106.891052,25.826067 106.301216,27.041327 
	C103.760483,32.276112 100.949432,37.405148 97.871613,42.345161 
	C95.695526,45.837860 90.304108,45.912594 85.514969,42.996487 
	C78.311012,38.609993 70.769997,35.425941 62.053749,35.978443 
	C53.411037,36.526279 45.788288,40.971973 46.983490,51.895393 
	C49.000599,55.122486 50.566746,58.720436 53.175468,59.800735 
	C66.306953,65.238609 79.710510,70.019501 93.018547,75.031036 
	C93.018547,75.031036 92.976387,75.023651 92.934906,75.292465 
	C93.196655,75.799110 93.499886,76.036934 93.803108,76.274757 
	C103.217537,82.749367 108.739723,91.257301 109.090446,103.089119 
	C109.443794,115.009460 107.670853,126.053917 100.080811,135.760513 
	C92.353363,145.642807 82.084007,150.774109 70.031242,153.012634 
	C55.057121,155.793701 40.855915,152.802795 27.220146,146.877182 
	C20.660311,144.026520 13.910091,140.991257 10.131843,133.961060 
z"/>
<path fill="#64358C" opacity="1.000000" stroke="none" 
	d="
M1025.000000,27.067556 
	C1025.665771,22.938719 1025.819702,19.063980 1027.192749,15.684451 
	C1027.993286,13.713831 1030.526367,11.851645 1032.671265,11.167036 
	C1035.625366,10.224186 1038.021118,11.955291 1038.999634,15.058783 
	C1039.726562,17.364147 1040.732422,19.675692 1040.919556,22.039421 
	C1041.466187,28.947468 1041.668091,35.882893 1041.999390,42.807865 
	C1042.669922,56.824024 1043.264282,70.844582 1044.079834,84.852280 
	C1044.207520,87.045204 1045.798096,89.153572 1045.922852,91.345947 
	C1046.902466,108.562538 1045.869995,125.697121 1042.877441,142.669434 
	C1042.479736,144.925873 1040.474243,148.444412 1038.910889,148.615524 
	C1036.005127,148.933578 1032.442749,147.853729 1029.959961,146.168350 
	C1027.378540,144.415939 1025.750610,141.258896 1023.504150,138.465485 
	C1019.053833,141.464355 1014.632629,144.892075 1009.788330,147.548187 
	C1006.631409,149.279099 1002.926819,150.379471 999.345337,150.870377 
	C995.258972,151.430496 991.036804,151.000000 986.873657,151.000000 
	C976.653320,150.999985 964.898193,143.285995 961.048767,133.898376 
	C957.258179,124.654205 957.865234,115.140686 958.667358,105.377586 
	C959.724487,92.511024 966.123840,82.352623 972.960083,72.183601 
	C979.854187,61.928631 991.549561,57.712387 1003.659485,59.675728 
	C1010.951965,60.858025 1017.217285,62.955269 1022.053406,68.566757 
	C1022.409424,68.366814 1022.886292,68.233551 1022.894775,68.075157 
	C1023.619873,54.561214 1024.308716,41.045322 1025.000000,27.067556 
M1021.701721,87.224678 
	C1017.503174,84.846573 1013.552979,81.485245 1009.041565,80.345375 
	C1003.698975,78.995491 998.561401,80.189682 993.698547,84.469589 
	C982.504761,94.321625 983.331360,106.878494 984.365662,119.546936 
	C984.710999,123.777184 987.388062,125.814217 992.376648,124.133514 
	C1001.515869,121.054436 1009.291199,115.725525 1015.935852,109.206497 
	C1021.559814,103.688988 1025.473999,96.604782 1021.701721,87.224678 
z"/>
<path fill="#4DAF47" opacity="1.000000" stroke="none" 
	d="
M398.013489,10.852547 
	C400.484955,10.852547 402.956421,10.852547 406.022583,10.852547 
	C406.022583,46.215336 406.022583,81.136856 406.029694,116.961121 
	C406.065399,120.228622 406.094025,122.593369 406.351318,125.305496 
	C420.468018,125.754593 434.356018,125.866982 448.244202,125.918449 
	C448.791138,125.920479 449.340210,125.341103 449.939148,125.015518 
	C449.989960,124.998421 450.090485,124.960884 450.090485,124.960884 
	C452.884186,124.960884 455.677887,124.960884 458.730591,124.960884 
	C458.730591,134.059494 458.730591,142.769928 458.730591,151.740997 
	C430.260468,151.740997 401.935272,151.740997 372.981659,151.740997 
	C372.981659,149.436447 372.981659,147.181244 373.015381,144.225586 
	C373.090607,143.353424 373.132050,143.181732 373.430542,142.688477 
	C373.791748,140.550293 373.985413,138.733749 373.986877,136.917038 
	C374.020416,94.983963 374.033081,53.050880 374.513306,11.074789 
	C382.655823,10.972039 390.334656,10.912292 398.013489,10.852547 
z"/>
<path fill="#64358C" opacity="1.000000" stroke="none" 
	d="
M802.191895,11.952684 
	C809.154236,9.857664 812.107727,11.974479 812.953430,19.822897 
	C814.113831,30.592428 815.070496,41.385654 815.972534,52.180588 
	C816.466980,58.098091 816.640381,64.041916 817.035156,69.968773 
	C817.095642,70.875320 817.570862,71.754227 818.147034,73.567085 
	C824.945374,67.741737 831.337830,62.409451 837.567261,56.893017 
	C847.445190,48.145721 857.157349,39.210823 867.063416,30.496052 
	C870.054626,27.864550 874.239807,24.970701 877.602478,27.771236 
	C880.879517,30.500479 879.043030,35.222496 877.004150,38.652779 
	C874.514282,42.841869 871.989136,47.180687 868.650330,50.659092 
	C861.608215,57.995621 854.158386,64.959702 846.620605,71.795174 
	C841.413025,76.517494 840.876709,78.848915 846.086487,83.489120 
	C858.614929,94.647919 871.668762,105.232872 883.909912,116.691048 
	C889.740784,122.148872 897.589539,126.294289 899.523071,135.093399 
	C900.247314,138.388977 901.476807,142.295181 897.721497,144.544022 
	C894.231873,146.633743 890.396667,147.196030 886.730042,144.312363 
	C874.654602,134.815445 862.416504,125.521774 850.462280,115.875786 
	C842.919495,109.789398 835.914734,103.037338 828.388367,96.929131 
	C824.447571,93.730850 821.665833,94.828751 820.038025,99.641319 
	C819.422913,101.459755 819.063782,103.452370 819.044922,105.370102 
	C818.947998,115.202438 819.096863,125.037590 818.960388,134.868988 
	C818.888733,140.032745 817.707092,144.994263 813.757019,148.693253 
	C808.895325,153.245850 802.489197,151.386063 801.095581,144.993393 
	C800.159241,140.698013 799.423828,136.322891 799.067383,131.945267 
	C798.504700,125.032852 798.138184,118.091316 798.034607,111.156944 
	C797.617676,83.227043 797.148438,55.295055 797.164368,27.364103 
	C797.167358,22.116528 796.669373,16.045441 802.191895,11.952684 
z"/>
<path fill="#F39224" opacity="1.000000" stroke="none" 
	d="
M442.717957,176.114426 
	C440.639465,193.064209 434.460571,208.635269 425.346741,222.919724 
	C400.638855,261.645447 365.385986,284.889191 320.238953,292.895172 
	C310.327576,294.652740 300.105865,296.257629 290.131104,295.776520 
	C252.433289,293.958130 218.317520,282.343689 189.388458,257.081482 
	C164.689651,235.513290 149.127045,208.793610 142.095642,176.525208 
	C147.020050,176.116165 152.006714,176.079193 157.472366,176.514923 
	C158.586609,179.722244 159.075806,182.500580 159.879120,185.184891 
	C171.342377,223.490234 196.178131,250.363327 231.633820,267.605194 
	C252.877747,277.935944 275.610565,282.058441 299.302094,281.062408 
	C313.678101,280.458038 327.597198,277.739380 341.060944,272.913208 
	C364.347107,264.566101 384.298584,251.291595 400.372711,232.253464 
	C414.264008,215.800644 423.863800,197.354782 428.021332,176.164307 
	C432.761017,176.121674 437.500671,176.079041 442.717957,176.114426 
z"/>
<path fill="#F5E22F" opacity="1.000000" stroke="none" 
	d="
M427.557983,176.098907 
	C423.863800,197.354782 414.264008,215.800644 400.372711,232.253464 
	C384.298584,251.291595 364.347107,264.566101 341.060944,272.913208 
	C327.597198,277.739380 313.678101,280.458038 299.302094,281.062408 
	C275.610565,282.058441 252.877747,277.935944 231.633820,267.605194 
	C196.178131,250.363327 171.342377,223.490234 159.879120,185.184891 
	C159.075806,182.500580 158.586609,179.722244 157.928894,176.583145 
	C162.631958,176.130280 167.357498,176.081924 172.569290,176.473602 
	C175.296371,183.095993 177.019424,189.527893 179.860062,195.421112 
	C202.236694,241.843613 240.531219,264.059113 290.850372,266.808594 
	C305.365723,267.601746 319.862061,264.918732 333.638824,259.927185 
	C373.948517,245.322296 401.440369,218.560410 412.180725,176.162170 
	C417.152008,176.119293 422.123322,176.076401 427.557983,176.098907 
z"/>
<path fill="#64358C" opacity="1.000000" stroke="none" 
	d="
M697.000000,139.984924 
	C697.000000,131.519775 697.000000,123.551300 697.000000,115.000000 
	C692.916199,115.000000 689.140930,115.000000 685.365662,115.000000 
	C669.369751,115.000000 653.373840,114.998230 637.377930,115.001602 
	C634.423401,115.002220 631.074646,115.664238 629.986877,111.741066 
	C628.841431,107.609947 626.278931,103.333229 629.430176,99.143799 
	C641.990784,82.444839 654.676331,65.839798 667.307312,49.193676 
	C675.795288,38.007420 684.485413,26.964268 692.617981,15.525020 
	C695.065186,12.082797 697.462219,10.629633 701.511902,10.941456 
	C705.128357,11.219920 708.783081,11.000000 712.911560,11.000000 
	C712.911560,41.048454 712.911560,70.771446 712.911560,100.820099 
	C720.340271,100.820099 727.282227,100.820099 734.952576,100.820099 
	C734.952576,104.709946 735.299622,108.340202 734.764526,111.835426 
	C734.576904,113.060783 732.270142,114.771065 730.847168,114.856033 
	C725.076172,115.200615 719.272583,114.999191 713.164551,114.999191 
	C713.164551,127.361855 713.164551,139.302887 713.164551,151.620865 
	C707.796936,151.620865 702.736572,151.620865 697.000000,151.620865 
	C697.000000,148.006805 697.000000,144.244202 697.000000,139.984924 
M671.993225,68.514854 
	C664.286438,79.084984 656.579712,89.655113 648.567078,100.644806 
	C665.156494,100.644806 680.975708,100.644806 696.803772,100.644806 
	C696.803772,78.768684 696.803772,57.248344 696.803772,34.849293 
	C688.380615,46.340111 680.443665,57.167625 671.993225,68.514854 
z"/>
<path fill="#F6E32F" opacity="1.000000" stroke="none" 
	d="
M337.999115,10.836334 
	C340.798615,10.836334 343.598114,10.836334 346.696350,10.836334 
	C346.696350,57.971653 346.696350,104.565750 346.696350,151.580200 
	C335.783295,151.580200 324.736694,151.580200 312.978241,151.580200 
	C312.978241,149.417786 312.978241,147.159714 313.027710,144.227142 
	C313.077209,143.552628 313.228485,143.093689 313.478943,142.755646 
	C313.819611,140.597260 313.987091,138.776947 313.988647,136.956512 
	C314.024261,95.021492 314.041840,53.086456 314.523651,11.088621 
	C322.656067,10.962658 330.327576,10.899496 337.999115,10.836334 
z"/>
<path fill="#4EAF47" opacity="1.000000" stroke="none" 
	d="
M411.701172,176.093857 
	C401.440369,218.560410 373.948517,245.322296 333.638824,259.927185 
	C319.862061,264.918732 305.365723,267.601746 290.850372,266.808594 
	C240.531219,264.059113 202.236694,241.843613 179.860062,195.421112 
	C177.019424,189.527893 175.296371,183.095993 173.032074,176.538681 
	C178.033005,176.117310 183.057388,176.070923 188.559998,176.472290 
	C195.443069,199.542618 208.581177,217.512817 227.475601,231.168472 
	C253.847717,250.228500 283.391602,256.601685 315.073425,249.856674 
	C356.225891,241.095444 384.107697,216.796555 396.896698,176.147552 
	C401.671661,176.106888 406.446655,176.066208 411.701172,176.093857 
z"/>
<path fill="#64358C" opacity="1.000000" stroke="none" 
	d="
M1138.328369,136.173462 
	C1124.608521,150.309982 1107.979248,153.649292 1089.839966,149.842651 
	C1080.832642,147.952393 1076.280273,139.899048 1072.344727,132.387009 
	C1069.912842,127.745140 1072.333374,124.849083 1077.777588,125.078178 
	C1081.990967,125.255478 1086.221313,125.908806 1090.362061,126.753220 
	C1099.016235,128.518082 1107.578979,128.982391 1116.045776,125.949379 
	C1124.784424,122.818962 1126.389038,116.494690 1119.534668,110.206444 
	C1114.758423,105.824730 1109.168213,102.328247 1103.928711,98.453987 
	C1097.643799,93.806808 1090.581421,89.909477 1085.255859,84.346992 
	C1079.320801,78.147858 1074.102783,70.750252 1073.134277,61.734673 
	C1072.178101,52.833611 1077.263794,46.204960 1083.779419,41.332211 
	C1087.268799,38.722603 1092.361572,37.723030 1096.879517,37.130238 
	C1107.387207,35.751568 1117.356201,38.005493 1126.772583,42.971985 
	C1130.496704,44.936203 1132.506226,49.419571 1130.837158,53.444828 
	C1129.427734,56.844391 1124.675415,59.256134 1121.390625,58.126316 
	C1113.920288,55.556828 1106.361084,55.057186 1098.678955,56.992210 
	C1094.977295,57.924664 1094.083252,60.282562 1096.605469,62.974102 
	C1102.223267,68.968933 1107.899780,74.967308 1114.093018,80.340828 
	C1117.403931,83.213387 1122.353027,84.197273 1125.664673,87.069267 
	C1134.304077,94.561913 1140.578003,103.482292 1142.176880,115.442909 
	C1143.173462,122.899239 1143.265503,129.692108 1138.328369,136.173462 
z"/>
<path fill="#0090D5" opacity="1.000000" stroke="none" 
	d="
M396.441589,176.083923 
	C384.107697,216.796555 356.225891,241.095444 315.073425,249.856674 
	C283.391602,256.601685 253.847717,250.228500 227.475601,231.168472 
	C208.581177,217.512817 195.443069,199.542618 189.022476,176.542572 
	C194.030869,176.118225 199.054993,176.071365 204.585388,176.454285 
	C218.965210,216.148819 254.229248,237.672485 292.754913,237.699875 
	C332.037994,237.727798 367.298035,215.543823 380.851898,176.175674 
	C385.896759,176.123886 390.941650,176.072098 396.441589,176.083923 
z"/>
<path fill="#64368C" opacity="1.000000" stroke="none" 
	d="
M380.401306,176.104767 
	C367.298035,215.543823 332.037994,237.727798 292.754913,237.699875 
	C254.229248,237.672485 218.965210,216.148819 205.047607,176.525650 
	C214.736649,174.920517 221.953552,175.725403 227.761734,186.595001 
	C238.858658,207.362091 258.544342,218.386719 281.319794,221.666061 
	C305.830963,225.195297 328.116302,218.501556 346.505035,201.018112 
	C353.105225,194.742889 358.805359,187.839066 362.220276,179.306061 
	C363.333252,176.525192 365.164581,175.788712 367.981262,175.946121 
	C371.960297,176.168503 375.959930,176.022446 380.401306,176.104767 
z"/>
<path fill="#64358C" opacity="1.000000" stroke="none" 
	d="
M474.181885,143.022141 
	C474.136108,143.194580 474.090363,143.367004 473.953857,143.790970 
	C471.399170,144.042511 468.935272,144.042511 466.242126,144.042511 
	C466.242126,96.675743 466.242126,49.731163 466.242126,2.393127 
	C496.182007,2.393127 526.235718,2.393127 557.002197,2.393127 
	C557.002197,4.780002 557.002197,7.367287 557.005859,10.399921 
	C529.999023,10.907782 502.988556,10.970292 475.163208,11.303139 
	C474.232178,22.515804 474.015961,33.458160 474.018829,44.400459 
	C474.027344,77.274361 474.121246,110.148247 474.181885,143.022141 
z"/>
<path fill="#64358C" opacity="1.000000" stroke="none" 
	d="
M915.966736,145.453979 
	C915.472229,143.553375 915.034546,141.967102 915.030701,140.379776 
	C914.983582,120.894745 914.795227,101.406509 915.085693,81.925697 
	C915.232422,72.090309 916.275818,62.268295 916.901978,52.621418 
	C926.243896,49.503864 928.553650,50.468319 931.059631,59.547916 
	C932.564087,64.998695 933.672180,70.706100 933.884705,76.338684 
	C934.535278,93.577621 934.764099,110.835159 934.939880,128.087662 
	C934.991699,133.175049 934.981812,138.437363 933.745605,143.300552 
	C932.958984,146.394867 930.376526,149.685608 927.665344,151.465561 
	C924.567871,153.499084 921.439026,151.152542 919.060974,148.576828 
	C918.159363,147.600189 917.172974,146.701828 915.966736,145.453979 
z"/>
<path fill="#64358C" opacity="1.000000" stroke="none" 
	d="
M156.990814,10.478399 
	C147.545578,10.836804 138.089905,10.836804 127.966530,10.836804 
	C127.966530,55.288326 127.966530,99.180481 127.901672,143.536987 
	C125.047829,144.001328 122.258842,144.001328 119.237976,144.001328 
	C119.237976,96.558640 119.237976,49.526325 119.237976,2.012458 
	C129.026169,2.012458 138.645554,1.722090 148.234222,2.138644 
	C152.821503,2.337926 155.646729,5.714191 156.990814,10.478399 
z"/>
<path fill="#64358C" opacity="1.000000" stroke="none" 
	d="
M398.008118,10.406584 
	C390.334656,10.912292 382.655823,10.972039 374.167053,11.305433 
	C373.238068,18.894415 373.013916,26.209806 373.017731,33.525078 
	C373.036743,70.020081 373.115662,106.515053 373.173492,143.010040 
	C373.132050,143.181732 373.090607,143.353424 372.965912,143.776505 
	C370.084656,144.027878 367.286591,144.027878 364.250854,144.027878 
	C364.250854,96.676704 364.250854,49.733604 364.250854,2.395080 
	C375.174469,2.395080 386.232971,2.395080 398.002716,2.395080 
	C398.002716,4.784276 398.002716,7.372448 398.008118,10.406584 
z"/>
<path fill="#64358C" opacity="1.000000" stroke="none" 
	d="
M337.999390,10.390411 
	C330.327576,10.899496 322.656067,10.962658 314.142151,11.270074 
	C313.199921,13.330143 313.014038,15.145909 313.013031,16.961777 
	C312.995392,49.205269 312.982880,81.448792 313.010712,113.692276 
	C313.019196,123.492798 313.152405,133.293213 313.228485,143.093689 
	C313.228485,143.093689 313.077209,143.552628 312.986450,143.776642 
	C310.098877,144.000671 307.302032,144.000671 304.255035,144.000671 
	C304.255035,96.567909 304.255035,49.507576 304.255035,2.223561 
	C315.407104,2.223561 326.344452,2.223561 337.999695,2.223561 
	C337.999695,4.772787 337.999695,7.358637 337.999390,10.390411 
z"/>
<path fill="#65368C" opacity="1.000000" stroke="none" 
	d="
M278.002563,10.392410 
	C270.745087,11.217341 263.465393,11.383527 256.243469,12.118084 
	C254.326172,12.313095 251.818039,13.822270 250.893967,15.466053 
	C246.047546,24.086960 241.576309,32.921078 237.061920,41.725826 
	C229.122467,57.210796 221.207703,72.708733 213.368134,88.244408 
	C211.157150,92.625916 209.243927,97.157684 206.692993,102.711578 
	C204.512711,97.042366 202.731491,92.410805 200.891724,87.388672 
	C206.601776,75.505089 212.324890,63.988945 218.150284,52.524788 
	C225.818924,37.433189 233.372742,22.276024 241.472626,7.417827 
	C242.838654,4.912027 246.616470,2.443133 249.440674,2.244704 
	C258.688202,1.594967 268.009888,2.000775 278.001984,2.000775 
	C278.001984,4.781777 278.001984,7.364143 278.002563,10.392410 
z"/>
<path fill="#64358C" opacity="1.000000" stroke="none" 
	d="
M666.000000,188.023346 
	C666.000000,184.219208 666.000000,180.911377 666.000000,177.307358 
	C668.020752,177.307358 669.741028,177.307358 671.960205,177.307358 
	C671.960205,187.731964 671.960205,198.134949 671.960205,209.267380 
	C677.529053,209.267380 682.627563,209.344009 687.718445,209.182129 
	C688.454712,209.158691 689.500916,208.128281 689.818176,207.330902 
	C693.293152,198.596909 696.509644,189.756668 700.163330,181.100143 
	C700.882812,179.395325 702.962769,177.759644 704.774780,177.135406 
	C707.736633,176.115005 708.232300,178.605347 709.127625,180.929855 
	C713.316528,191.805283 717.805603,202.565094 722.201904,213.402008 
	C717.799988,214.994446 714.967285,213.968109 714.268860,209.551514 
	C713.565979,205.106445 711.285400,203.258133 706.829834,203.972656 
	C705.693420,204.154892 704.475647,204.162582 703.342102,203.971878 
	C698.391113,203.139008 695.895691,205.164886 694.746765,210.073685 
	C694.376099,211.657425 691.771545,213.737656 690.098633,213.823090 
	C682.309265,214.220917 674.488403,213.999329 666.000000,213.999329 
	C666.000000,205.358932 666.000000,196.939301 666.000000,188.023346 
M706.943542,189.796082 
	C706.139587,188.339005 705.335632,186.881912 704.444641,185.267029 
	C702.563171,190.231659 700.800720,194.882385 699.002197,199.628265 
	C702.834717,199.628265 706.346497,199.628265 710.469604,199.628265 
	C709.181519,196.261765 708.093079,193.416946 706.943542,189.796082 
z"/>
<path fill="#64358C" opacity="1.000000" stroke="none" 
	d="
M257.226593,143.036453 
	C257.176208,143.202576 257.125854,143.368683 256.977844,143.776154 
	C254.089188,144.017517 251.298111,144.017517 247.975586,144.017517 
	C247.975586,122.735321 247.975586,101.834251 247.905441,80.468048 
	C250.813507,74.163681 253.791733,68.324448 256.903870,63.201088 
	C257.100708,90.290123 257.163635,116.663292 257.226593,143.036453 
z"/>
<path fill="#64358C" opacity="1.000000" stroke="none" 
	d="
M530.000000,201.984924 
	C530.000000,193.525360 530.000000,185.562454 530.000000,176.629486 
	C536.845642,177.073212 543.557434,176.607986 549.791504,178.116714 
	C559.941345,180.573135 563.352966,187.554626 561.995544,199.996964 
	C561.170837,207.556442 554.433594,213.439270 545.578003,213.945923 
	C540.619812,214.229614 535.632141,213.996979 530.000000,213.996979 
	C530.000000,210.002106 530.000000,206.241867 530.000000,201.984924 
M536.000000,197.484985 
	C536.000000,201.241058 536.000000,204.997131 536.000000,209.040192 
	C542.970581,208.640427 549.978577,210.694824 554.119629,203.427704 
	C557.440491,197.599945 557.326416,191.397888 553.466248,186.311646 
	C549.195557,180.684448 542.491699,181.785980 536.000000,182.301010 
	C536.000000,187.243195 536.000000,191.868179 536.000000,197.484985 
z"/>
<path fill="#64358C" opacity="1.000000" stroke="none" 
	d="
M621.000000,209.800247 
	C621.652588,214.042618 619.608582,214.502655 616.321045,213.723526 
	C616.321045,201.754074 616.321045,189.669113 616.321045,177.291687 
	C620.433044,176.010818 622.032104,179.430817 623.914429,181.816910 
	C629.060425,188.340042 633.999756,195.026230 639.751648,202.611450 
	C639.751648,193.562881 639.751648,185.581924 639.751648,177.307755 
	C642.025024,177.307755 643.748230,177.307755 645.737915,177.307755 
	C645.737915,189.423721 645.737915,201.507843 645.737915,215.438492 
	C642.858887,213.434555 640.456604,212.419800 639.000244,210.633698 
	C633.070496,203.361572 627.430603,195.853134 621.000000,187.548691 
	C621.000000,195.507751 621.000000,202.415665 621.000000,209.800247 
z"/>
<path fill="#64358C" opacity="1.000000" stroke="none" 
	d="
M1047.808350,180.687592 
	C1054.978516,174.782883 1068.022339,175.895920 1072.988892,181.650787 
	C1080.099243,189.889862 1079.542725,200.311310 1073.592041,208.687256 
	C1070.090942,213.615189 1059.465576,215.479218 1052.650879,213.010025 
	C1046.408447,210.748215 1042.240723,204.369873 1041.938843,197.512466 
	C1041.659912,191.175034 1042.549438,185.424042 1047.808350,180.687592 
M1048.000000,197.256348 
	C1049.312012,200.309967 1049.870972,204.188843 1052.107422,206.229462 
	C1055.725708,209.531113 1060.838623,210.318481 1065.318359,207.736938 
	C1070.017456,205.028946 1072.250488,200.376862 1071.944580,194.920563 
	C1071.656860,189.792435 1069.656738,185.310532 1064.710449,183.064163 
	C1056.487671,179.329712 1046.533813,185.157700 1048.000000,197.256348 
z"/>
<path fill="#64358C" opacity="1.000000" stroke="none" 
	d="
M1107.380493,212.837402 
	C1095.965332,216.218246 1087.008301,212.816238 1082.936401,203.827728 
	C1078.952759,195.034424 1082.993530,181.888596 1090.988770,178.578751 
	C1100.285400,174.730209 1111.956665,176.809433 1116.130859,187.489090 
	C1119.839600,196.977936 1117.101807,207.633423 1107.380493,212.837402 
M1089.907837,203.491776 
	C1090.544312,204.427811 1091.003174,205.585159 1091.847168,206.262680 
	C1096.176270,209.737427 1100.952148,209.931396 1105.974121,207.007828 
	C1109.738770,204.816223 1112.616943,198.740204 1111.970093,194.349945 
	C1110.380127,183.558273 1100.695435,178.582306 1092.359741,184.274200 
	C1087.716553,187.444733 1086.373169,195.904877 1089.907837,203.491776 
z"/>
<path fill="#64358C" opacity="1.000000" stroke="none" 
	d="
M726.000000,190.012665 
	C726.000000,185.534943 726.000000,181.554916 726.000000,177.542740 
	C729.742432,175.899536 731.282471,178.602341 732.913635,180.712814 
	C738.293152,187.672897 743.568176,194.713684 749.710754,202.814804 
	C749.710754,193.582855 749.710754,185.621674 749.710754,177.332230 
	C751.621399,177.190140 753.011658,177.086731 754.711609,176.960312 
	C754.711609,189.321838 754.711609,201.396103 754.711609,215.161087 
	C752.062012,213.314987 749.725891,212.349991 748.359009,210.619461 
	C742.645935,203.386932 737.223755,195.924576 731.127197,187.788712 
	C731.127197,196.892990 731.127197,205.093750 731.127197,213.640457 
	C729.414734,213.796478 728.023560,213.923248 726.000000,214.107620 
	C726.000000,206.038452 726.000000,198.274399 726.000000,190.012665 
z"/>
<path fill="#64358C" opacity="1.000000" stroke="none" 
	d="
M502.265381,193.650146 
	C500.942139,191.775970 499.823090,190.206726 498.128662,187.830688 
	C498.128662,196.938858 498.128662,205.250900 498.128662,213.756287 
	C496.182739,213.756287 494.793884,213.756287 493.203583,213.756287 
	C493.203583,201.578842 493.203583,189.633194 493.203583,177.471222 
	C496.670990,175.811691 498.284821,178.562866 499.877136,180.622238 
	C504.659637,186.807663 509.277100,193.121597 513.896729,199.430969 
	C514.568665,200.348663 514.900146,201.515533 515.389221,202.567093 
	C515.891357,202.178558 516.393433,201.790009 516.895508,201.401474 
	C516.895508,193.499969 516.895508,185.598480 516.895508,177.348923 
	C518.594116,177.201111 519.986145,177.079987 521.701294,176.930756 
	C521.701294,189.307144 521.701294,201.394424 521.701294,213.597153 
	C518.202332,215.067154 516.730408,212.349731 515.059937,210.219482 
	C510.829315,204.824554 506.662140,199.379852 502.265381,193.650146 
z"/>
<path fill="#64358C" opacity="1.000000" stroke="none" 
	d="
M1030.000000,188.854736 
	C1030.000000,184.748764 1030.000000,181.121445 1030.000000,177.254257 
	C1032.113037,177.254257 1033.833984,177.254257 1035.759033,177.254257 
	C1035.759033,189.497284 1035.759033,201.551620 1035.759033,213.800888 
	C1033.906128,213.800888 1032.288818,213.800888 1030.194580,213.800888 
	C1030.194580,208.780548 1030.194580,203.707626 1030.194580,198.319763 
	C1024.012817,198.319763 1018.295166,198.319763 1012.083618,198.319763 
	C1012.083618,203.390045 1012.083618,208.460175 1012.083618,213.753723 
	C1009.874329,213.753723 1008.153442,213.753723 1006.247375,213.753723 
	C1006.247375,201.486343 1006.247375,189.431961 1006.247375,177.191071 
	C1008.109680,177.191071 1009.726990,177.191071 1011.819153,177.191071 
	C1011.819153,182.234543 1011.819153,187.309814 1011.819153,192.994049 
	C1017.369446,192.994049 1022.470215,193.169968 1027.536255,192.829330 
	C1028.431763,192.769135 1029.182495,190.553604 1030.000000,188.854736 
z"/>
<path fill="#64358C" opacity="1.000000" stroke="none" 
	d="
M876.298340,185.208374 
	C871.663574,190.151077 870.640259,195.492828 873.157104,201.345276 
	C875.681641,207.215363 880.368958,209.409836 886.627991,209.038559 
	C892.436707,208.693985 893.249817,207.742691 892.785706,200.728683 
	C891.224915,198.320496 885.286072,202.835953 886.200195,196.242386 
	C890.070435,196.242386 893.811768,196.242386 897.776855,196.242386 
	C897.776855,201.072739 897.776855,205.686020 897.776855,210.330734 
	C889.440735,216.347076 875.576660,215.740585 868.764893,206.300201 
	C864.366638,200.204529 865.381531,187.072708 870.871460,181.586487 
	C876.512817,175.948929 891.751953,174.493423 898.007507,181.728317 
	C896.732666,184.944275 894.773010,185.665253 891.542480,183.955551 
	C886.431396,181.250641 881.310486,180.775940 876.298340,185.208374 
z"/>
<path fill="#64358C" opacity="1.000000" stroke="none" 
	d="
M787.998657,202.951691 
	C786.976929,201.676773 786.019043,200.742279 784.919617,200.024597 
	C783.537354,199.122299 782.039185,198.397461 780.591064,197.596069 
	C780.819702,197.139069 781.048340,196.682083 781.276978,196.225098 
	C785.031006,196.225098 788.785034,196.225098 792.996277,196.225098 
	C792.996277,200.552399 793.546753,204.780945 792.744263,208.734940 
	C792.388550,210.487366 789.510681,212.303223 787.411011,213.028259 
	C777.542542,216.435822 767.417603,212.676300 763.228821,204.648087 
	C759.552185,197.601471 761.626343,186.534653 766.561951,181.520309 
	C771.163208,176.845718 784.148499,175.619400 789.621277,178.914291 
	C791.335205,179.946167 794.198242,180.731750 792.038757,183.396988 
	C791.306946,184.300156 788.905701,184.141296 787.310364,183.996094 
	C783.525452,183.651581 779.522095,181.949417 776.047791,182.737900 
	C768.996399,184.338181 765.468262,191.549805 768.050842,200.981033 
	C769.567139,206.518463 777.277039,210.428818 783.819763,208.932861 
	C786.647156,208.286377 788.675110,206.793671 787.998657,202.951691 
z"/>
<path fill="#64358C" opacity="1.000000" stroke="none" 
	d="
M823.000000,187.027649 
	C823.000000,183.559601 823.000000,180.583786 823.000000,177.307526 
	C825.026245,177.307526 826.750061,177.307526 829.424377,177.307526 
	C828.952698,186.066071 828.944214,194.811157 827.873535,203.424225 
	C826.997192,210.473419 821.749634,213.987869 814.212708,214.000000 
	C806.227478,214.012863 801.078918,210.657166 800.127625,203.348480 
	C799.024841,194.875702 799.033875,186.258209 798.535461,177.256088 
	C800.958313,177.148422 802.684509,177.071716 805.000549,176.968796 
	C805.000549,184.547302 804.972656,191.828094 805.010681,199.108551 
	C805.034485,203.654495 807.100586,207.124527 811.361084,208.656281 
	C814.919495,209.935608 818.485168,208.935699 820.585754,205.738647 
	C821.932800,203.688354 822.642639,200.992126 822.902344,198.508514 
	C823.281494,194.881866 822.999939,191.186142 823.000000,187.027649 
z"/>
<path fill="#64358C" opacity="1.000000" stroke="none" 
	d="
M864.985107,212.121613 
	C862.420471,215.006897 859.676270,215.003815 858.921387,211.421890 
	C857.265808,203.566650 851.973877,203.584045 845.735107,203.864090 
	C841.863342,204.037888 839.717529,204.869156 838.839661,208.980881 
	C838.036987,212.740341 835.831726,215.513245 830.935974,213.382477 
	C835.431274,201.971878 839.864807,190.522263 844.541382,179.172806 
	C844.973999,178.122894 847.209595,176.885666 848.157776,177.181000 
	C849.888000,177.719864 852.042297,179.022583 852.688904,180.564651 
	C856.441101,189.513092 859.800354,198.626099 863.305908,207.678284 
	C863.831482,209.035538 864.426636,210.365875 864.985107,212.121613 
M845.995178,190.575943 
	C844.899170,193.526138 843.803101,196.476334 842.563049,199.814056 
	C846.811584,199.814056 850.248108,199.814056 854.075500,199.814056 
	C852.180298,194.836563 850.395935,190.150177 848.521057,185.225952 
	C847.593445,186.947433 846.824646,188.374252 845.995178,190.575943 
z"/>
<path fill="#64358C" opacity="1.000000" stroke="none" 
	d="
M585.269653,193.373169 
	C587.297485,188.694672 588.981079,184.285614 591.044189,180.061920 
	C591.670959,178.778870 593.382446,177.160736 594.530334,177.211273 
	C596.039612,177.277740 598.264038,178.505142 598.828979,179.815979 
	C602.743774,188.900055 606.314453,198.132629 609.978088,207.324554 
	C610.749512,209.259949 611.448120,211.224365 612.194031,213.211975 
	C606.291138,214.619629 606.024841,214.363846 602.396057,204.000000 
	C600.672241,204.000000 598.850037,204.072266 597.035339,203.986633 
	C591.271973,203.714630 585.416992,202.861511 584.562927,211.397385 
	C584.438660,212.639755 580.786560,213.529175 578.766907,214.581909 
	C578.421387,214.124527 578.075867,213.667130 577.730347,213.209747 
	C580.177246,206.711121 582.624146,200.212479 585.269653,193.373169 
M592.499023,191.002029 
	C591.456909,193.908356 590.414734,196.814667 589.345886,199.795410 
	C593.389343,199.795410 596.923950,199.795410 600.853821,199.795410 
	C598.932495,194.967712 597.137451,190.457291 594.823853,184.643845 
	C593.900757,187.405472 593.411255,188.869736 592.499023,191.002029 
z"/>
<path fill="#64358C" opacity="1.000000" stroke="none" 
	d="
M920.882690,214.000000 
	C915.443604,214.000000 910.488037,214.000000 905.270752,214.000000 
	C905.270752,201.584290 905.270752,189.544769 905.270752,177.251907 
	C912.333374,177.251907 919.258118,177.251907 926.588257,177.251907 
	C926.588257,178.632797 926.588257,180.119324 926.588257,181.928558 
	C921.227783,181.928558 915.951233,181.928558 910.340698,181.928558 
	C910.340698,185.616745 910.340698,189.002975 910.340698,192.885757 
	C914.681763,192.885757 919.090576,192.885757 923.735596,192.885757 
	C923.735596,194.759003 923.735596,196.146729 923.735596,197.844635 
	C919.330566,197.844635 915.048035,197.844635 910.384766,197.844635 
	C910.384766,201.526947 910.384766,204.915054 910.384766,208.803329 
	C915.590149,208.803329 920.988403,208.803329 926.732361,208.803329 
	C926.828308,210.661743 926.899902,212.049042 927.000610,214.000000 
	C924.927185,214.000000 923.146729,214.000000 920.882690,214.000000 
z"/>
<path fill="#64358C" opacity="1.000000" stroke="none" 
	d="
M943.368713,208.179184 
	C945.568665,203.718353 947.857483,207.229401 950.084900,207.493484 
	C952.941711,207.832138 956.452881,208.745773 958.617249,207.524475 
	C962.751831,205.191360 961.960205,201.120880 957.502441,198.900009 
	C954.199646,197.254578 950.691528,195.948456 947.586975,193.995117 
	C942.859619,191.020676 943.490417,179.284668 951.499023,177.386276 
	C955.121460,176.527588 959.306274,177.480057 963.103577,178.257568 
	C964.267090,178.495804 964.990906,180.881851 965.916016,182.284363 
	C964.215027,182.650452 962.284302,183.713364 960.859070,183.243317 
	C957.477478,182.128021 954.161255,180.473694 951.592529,184.128326 
	C950.818481,185.229660 950.798157,188.159393 951.606384,188.823883 
	C953.787537,190.617142 956.496704,191.923691 959.183899,192.914597 
	C965.409363,195.210266 967.881287,198.904556 966.988647,205.275024 
	C966.318359,210.058411 961.172424,213.961349 955.523438,214.003906 
	C950.542542,214.041428 945.598511,214.030319 943.368713,208.179184 
z"/>
<path fill="#64358C" opacity="1.000000" stroke="none" 
	d="
M971.000000,196.867218 
	C969.483337,180.054733 983.384460,173.929886 996.104736,178.144135 
	C997.983887,178.766693 999.555359,180.317947 1001.406372,181.529358 
	C999.379578,184.452469 998.327942,185.565399 994.806030,183.633148 
	C985.403503,178.474564 976.607361,185.544739 976.889954,194.738571 
	C977.288574,207.710693 984.959045,212.429520 996.393677,206.315262 
	C997.348083,205.804947 999.050598,206.693665 1000.405518,206.932373 
	C1000.001953,208.277283 1000.028137,210.236542 999.125488,210.868011 
	C992.967041,215.175980 986.259644,215.307114 979.668518,212.104324 
	C973.662354,209.185806 970.833313,204.043900 971.000000,196.867218 
z"/>
<path fill="#64358C" opacity="1.000000" stroke="none" 
	d="
M557.031616,125.426941 
	C556.886536,125.934067 556.718445,125.998306 555.822998,126.057991 
	C539.391968,126.091766 523.688171,126.130112 507.984436,126.168457 
	C507.780487,123.565529 507.576569,120.962616 507.690674,118.102554 
	C524.116455,117.845421 540.224182,117.845421 557.008545,117.845421 
	C557.008545,120.491684 557.008545,122.737877 557.031616,125.426941 
z"/>
<path fill="#64358C" opacity="1.000000" stroke="none" 
	d="
M406.122650,124.958122 
	C406.094025,122.593369 406.065399,120.228622 406.092133,117.425186 
	C420.565033,116.986511 434.982605,116.986511 450.013306,116.986511 
	C450.013306,119.555008 450.013306,121.808502 450.051880,124.511444 
	C450.090485,124.960884 449.989960,124.998421 449.479980,125.001976 
	C434.687561,124.989731 420.405121,124.973930 406.122650,124.958122 
z"/>
<path fill="#64358C" opacity="1.000000" stroke="none" 
	d="
M544.005737,68.399414 
	C531.908264,68.845268 519.807068,68.845268 506.980652,68.845268 
	C507.113251,65.856804 507.234558,63.123348 507.682312,60.117653 
	C519.777100,59.845413 531.545471,59.845413 544.002075,59.845413 
	C544.002075,62.791119 544.002075,65.372337 544.005737,68.399414 
z"/>
<path fill="#68378B" opacity="1.000000" stroke="none" 
	d="
M157.462738,70.174141 
	C156.769287,67.915764 156.319565,65.829918 156.029877,63.722073 
	C155.928680,62.985706 156.221985,62.195114 156.460358,60.581795 
	C157.524002,61.845158 158.237396,62.437103 158.629288,63.195232 
	C169.345139,83.925507 180.030533,104.671524 190.704575,125.423370 
	C191.003571,126.004677 191.122635,126.678520 191.173859,127.672501 
	C188.661209,125.920807 185.466232,124.247398 184.074844,121.619171 
	C175.086945,104.641617 166.492722,87.455643 157.462738,70.174141 
z"/>
<path fill="#64358C" opacity="1.000000" stroke="none" 
	d="
M920.002808,25.983765 
	C919.208069,22.286087 917.519409,18.790489 918.120056,15.746642 
	C918.500793,13.817026 922.485168,11.076874 924.505615,11.342781 
	C927.674438,11.759830 930.946228,13.976826 933.424561,16.249352 
	C935.444397,18.101458 933.897034,25.529270 931.873596,27.009552 
	C927.800171,29.989534 923.441711,29.755840 920.002808,25.983765 
z"/>
<path fill="#67358A" opacity="1.000000" stroke="none" 
	d="
M92.931259,74.701920 
	C79.710510,70.019501 66.306953,65.238609 53.175468,59.800735 
	C50.566746,58.720436 49.000599,55.122486 47.028297,52.322891 
	C55.269073,54.975639 63.390392,58.120422 71.614059,60.969826 
	C79.767952,63.795044 87.182991,67.660774 92.931259,74.701920 
z"/>
<path fill="#64358C" opacity="1.000000" stroke="none" 
	d="
M574.000000,201.983978 
	C574.000000,206.105942 574.000000,209.731552 574.000000,213.675354 
	C572.018860,213.675354 570.300598,213.675354 568.283813,213.675354 
	C568.283813,201.693634 568.283813,189.670273 568.283813,177.324310 
	C569.991821,177.324310 571.709839,177.324310 574.000000,177.324310 
	C574.000000,185.346146 574.000000,193.416870 574.000000,201.983978 
z"/>
<path fill="#64358C" opacity="1.000000" stroke="none" 
	d="
M479.000000,184.091400 
	C479.000000,181.631638 479.000000,179.659073 479.000000,177.329498 
	C480.603729,177.195496 481.991699,177.079514 483.701416,176.936661 
	C483.701416,189.252716 483.701416,201.285416 483.701416,213.702301 
	C482.389252,213.807373 481.001251,213.918518 479.000000,214.078751 
	C479.000000,204.044785 479.000000,194.311691 479.000000,184.091400 
z"/>
<path fill="#67358A" opacity="1.000000" stroke="none" 
	d="
M93.854980,75.967094 
	C93.499886,76.036934 93.196655,75.799110 92.930939,75.271439 
	C93.281250,75.207535 93.594055,75.433487 93.854980,75.967094 
z"/>
<path fill="#68378B" opacity="1.000000" stroke="none" 
	d="
M191.005142,128.229980 
	C191.278976,128.117310 191.596390,128.261505 191.902191,128.715057 
	C191.609940,128.845215 191.329346,128.666031 191.005142,128.229980 
z"/>
<path fill="#65358C" opacity="1.000000" stroke="none" 
	d="
M20.039989,74.253860 
	C20.328409,74.150398 20.671740,74.335022 21.036819,74.847458 
	C20.737345,74.964157 20.416122,74.753059 20.039989,74.253860 
z"/>
<path fill="#D27B57" opacity="1.000000" stroke="none" 
	d="
M257.473389,142.704285 
	C257.163635,116.663292 257.100708,90.290123 257.091217,63.450050 
	C257.429749,64.230278 257.961090,65.476936 257.963501,66.724625 
	C258.011444,91.287643 258.000092,115.850784 257.985413,140.413895 
	C257.985016,141.066681 257.812439,141.719391 257.473389,142.704285 
z"/>
<path fill="#086CB5" opacity="1.000000" stroke="none" 
	d="
M474.437073,142.697495 
	C474.121246,110.148247 474.027344,77.274361 474.018829,44.400459 
	C474.015961,33.458160 474.232178,22.515804 474.700012,11.350527 
	C475.034515,53.059006 475.021088,94.990433 474.987091,136.921844 
	C474.985596,138.738937 474.794800,140.555847 474.437073,142.697495 
z"/>
<path fill="#086CB5" opacity="1.000000" stroke="none" 
	d="
M508.305634,126.427803 
	C523.688171,126.130112 539.391968,126.091766 555.562012,126.126846 
	C555.435059,126.454727 554.840942,126.932922 554.248474,126.930946 
	C539.041199,126.880173 523.833984,126.779312 508.305634,126.427803 
z"/>
<path fill="#53986E" opacity="1.000000" stroke="none" 
	d="
M373.430542,142.688477 
	C373.115662,106.515053 373.036743,70.020081 373.017731,33.525078 
	C373.013916,26.209806 373.238068,18.894415 373.703369,11.348435 
	C374.033081,53.050880 374.020416,94.983963 373.986877,136.917038 
	C373.985413,138.733749 373.791748,140.550293 373.430542,142.688477 
z"/>
<path fill="#5E5C8E" opacity="1.000000" stroke="none" 
	d="
M406.351318,125.305496 
	C420.405121,124.973930 434.687561,124.989731 449.429169,125.019073 
	C449.340210,125.341103 448.791138,125.920479 448.244202,125.918449 
	C434.356018,125.866982 420.468018,125.754593 406.351318,125.305496 
z"/>
<path fill="#D1B870" opacity="1.000000" stroke="none" 
	d="
M313.478943,142.755646 
	C313.152405,133.293213 313.019196,123.492798 313.010712,113.692276 
	C312.982880,81.448792 312.995392,49.205269 313.013031,16.961777 
	C313.014038,15.145909 313.199921,13.330143 313.681274,11.332876 
	C314.041840,53.086456 314.024261,95.021492 313.988647,136.956512 
	C313.987091,138.776947 313.819611,140.597260 313.478943,142.755646 
z"/>
</svg>